<svg width="32" height="32" viewBox="0 0 32 32" fill="none" xmlns="http://www.w3.org/2000/svg">
<path d="M27.7675 13.2312L17.7675 3.23123C17.2987 2.76256 16.6629 2.49927 16 2.49927C15.3371 2.49927 14.7013 2.76256 14.2325 3.23123L4.23251 13.2312C3.99942 13.4629 3.81465 13.7385 3.6889 14.0422C3.56316 14.3458 3.49896 14.6714 3.50001 15V27C3.50001 27.3978 3.65805 27.7793 3.93935 28.0606C4.22066 28.3419 4.60219 28.5 5.00001 28.5H13C13.3978 28.5 13.7794 28.3419 14.0607 28.0606C14.342 27.7793 14.5 27.3978 14.5 27V20.5H17.5V27C17.5 27.3978 17.658 27.7793 17.9394 28.0606C18.2207 28.3419 18.6022 28.5 19 28.5H27C27.3978 28.5 27.7794 28.3419 28.0607 28.0606C28.342 27.7793 28.5 27.3978 28.5 27V15C28.5011 14.6714 28.4369 14.3458 28.3111 14.0422C28.1854 13.7385 28.0006 13.4629 27.7675 13.2312ZM25.5 25.5H20.5V19C20.5 18.6022 20.342 18.2206 20.0607 17.9393C19.7794 17.658 19.3978 17.5 19 17.5H13C12.6022 17.5 12.2207 17.658 11.9394 17.9393C11.658 18.2206 11.5 18.6022 11.5 19V25.5H6.50001V15.2062L16 5.70623L25.5 15.2062V25.5Z" fill="white"/>
</svg>
